<svg width="74" height="74" viewBox="0 0 74 74" fill="none" xmlns="http://www.w3.org/2000/svg">
<rect width="74" height="74" rx="37" fill="url(#paint0_radial_1100_6491)"/>
<path d="M23.5156 28.574C30.959 21.3041 43.0418 21.3041 50.4851 28.574L51.3812 29.4557C51.757 29.817 51.757 30.4096 51.3812 30.7709L48.3172 33.7627C48.1293 33.9506 47.8258 33.9506 47.6379 33.7627L46.4094 32.5631C41.2062 27.49 32.7945 27.49 27.5914 32.5631L26.2762 33.8494C26.0883 34.0373 25.7848 34.0373 25.5969 33.8494L22.5328 30.8576C22.157 30.4963 22.157 29.9037 22.5328 29.5424L23.5156 28.574ZM56.8301 34.76L59.5617 37.4193C59.9375 37.7807 59.9375 38.3732 59.5617 38.7346L47.2621 50.7451C46.8863 51.1064 46.2793 51.1064 45.918 50.7451L37.1883 42.2178C37.1016 42.1311 36.9426 42.1311 36.8559 42.2178L28.1262 50.7451C27.7504 51.1064 27.1434 51.1064 26.782 50.7451L14.4391 38.7346C14.0633 38.3732 14.0633 37.7807 14.4391 37.4193L17.1707 34.76C17.5465 34.3986 18.1535 34.3986 18.5148 34.76L27.2445 43.2873C27.3312 43.374 27.4902 43.374 27.577 43.2873L36.3066 34.76C36.6824 34.3986 37.2895 34.3986 37.6508 34.76L46.3805 43.2873C46.4672 43.374 46.6262 43.374 46.7129 43.2873L55.4426 34.76C55.8473 34.3986 56.4543 34.3986 56.8301 34.76Z" fill="white"/>
<defs>
<radialGradient id="paint0_radial_1100_6491" cx="0" cy="0" r="1" gradientUnits="userSpaceOnUse" gradientTransform="translate(0.000229359 37.0012) scale(74)">
<stop stop-color="#5D9DF6"/>
<stop offset="1" stop-color="#006FFF"/>
</radialGradient>
</defs>
</svg>
