<svg width="30" height="30" viewBox="0 0 30 30" fill="none" xmlns="http://www.w3.org/2000/svg">
<path d="M3.99951 10.4556H25.9995" stroke="#97989D" stroke-width="2"/>
<path fill-rule="evenodd" clip-rule="evenodd" d="M7.17757 4.67505H22.822C24.3219 4.67505 24.8798 4.79587 25.4319 5.09113C25.9069 5.34516 26.2797 5.71795 26.5337 6.19296C26.829 6.74505 26.9498 7.30298 26.9498 8.80282V21.1973C26.9498 22.6971 26.829 23.2551 26.5337 23.8071C26.2797 24.2822 25.9069 24.6549 25.4319 24.909C24.8798 25.2042 24.3219 25.3251 22.822 25.3251H7.17757C5.67773 25.3251 5.1198 25.2042 4.56771 24.909C4.09271 24.6549 3.71992 24.2822 3.46588 23.8071C3.17062 23.2551 3.0498 22.6971 3.0498 21.1973V8.80282C3.0498 7.30298 3.17062 6.74505 3.46588 6.19296C3.71992 5.71795 4.09271 5.34516 4.56771 5.09113C5.1198 4.79587 5.67773 4.67505 7.17757 4.67505Z" stroke="#1F202A" stroke-width="2"/>
<path d="M19.2744 20.8396H22.5026" stroke="#97989D" stroke-width="2.5" stroke-linecap="round"/>
</svg>
