<?xml version="1.0" encoding="UTF-8"?>
<svg width="32px" height="32px" viewBox="0 0 32 32" version="1.1" xmlns="http://www.w3.org/2000/svg" xmlns:xlink="http://www.w3.org/1999/xlink">
    <title>切片</title>
    <g id="移动端" stroke="none" stroke-width="1" fill="none" fill-rule="evenodd">
        <g id="scan" transform="translate(-315.000000, -44.000000)">
            <g id="移动端/按钮/关闭/通用关闭" transform="translate(315.000000, 44.000000)">
                <path d="M15.6319029,-2.99775695e-16 L16.3680971,2.99775695e-16 C19.8303761,-3.3623463e-16 22.5564384,0.649779278 24.8379199,1.86992893 C27.1194014,3.09007857 28.9099214,4.88059859 30.1300711,7.16208008 C31.3502207,9.44356156 32,12.1696239 32,15.6319029 L32,16.3680971 C32,19.8303761 31.3502207,22.5564384 30.1300711,24.8379199 C28.9099214,27.1194014 27.1194014,28.9099214 24.8379199,30.1300711 C22.5564384,31.3502207 19.8303761,32 16.3680971,32 L15.6319029,32 C12.1696239,32 9.44356156,31.3502207 7.16208008,30.1300711 C4.88059859,28.9099214 3.09007857,27.1194014 1.86992893,24.8379199 C0.649779278,22.5564384 2.2415642e-16,19.8303761 -1.99850463e-16,16.3680971 L1.99850463e-16,15.6319029 C-2.2415642e-16,12.1696239 0.649779278,9.44356156 1.86992893,7.16208008 C3.09007857,4.88059859 4.88059859,3.09007857 7.16208008,1.86992893 C9.44356156,0.649779278 12.1696239,3.3623463e-16 15.6319029,-2.99775695e-16 Z" id="矩形" fill="#FFFFFF"></path>
                <g id="编组" transform="translate(7.529412, 7.529412)" fill="#97989D" fill-rule="nonzero">
                    <path d="M15.9775366,2.11465281 L15.7969408,2.23624118 L2.14213813,15.8910659 C1.82790982,16.2052721 1.25248268,16.1393162 0.938276436,15.8250879 C0.642511386,15.5293449 0.592128975,15.0276605 0.853085161,14.7116013 L0.905254339,14.6542262 L7.3059162,8.31764532 L1.19570321,2.2074985 C0.899938156,1.91175551 0.836651318,1.42480641 1.0976075,1.10870311 L1.14977668,1.0513501 C1.44554173,0.755562988 1.93070406,0.721702655 2.24676325,0.982636782 L2.30416038,1.03485008 L8.41441749,7.14495278 L14.5600791,0.999379448 C14.8743074,0.685151142 15.4497124,0.75112916 15.7639628,1.06533541 C16.0597279,1.36110046 16.2384928,1.79857155 15.9775366,2.11465281 Z M15.9424851,14.7061307 C16.2567354,15.0203811 16.3666326,15.5483155 16.0295955,15.8853527 C15.7123892,16.2025589 15.2260578,16.2375884 14.9079692,15.9786616 L14.8503956,15.9266468 L12.8565624,13.9328136 L10.4125742,11.4888255 C10.098368,11.1746192 9.98844873,10.6466627 10.3254638,10.3096476 C10.6426701,9.99241932 11.1290236,9.95736781 11.4470901,10.2163387 L11.5046858,10.2683535 L15.9424851,14.7061528 L15.9424851,14.7061307 Z" id="形状"></path>
                </g>
            </g>
        </g>
    </g>
</svg>