<?xml version="1.0" encoding="UTF-8"?>
<svg width="16px" height="16px" viewBox="0 0 16 16" version="1.1" xmlns="http://www.w3.org/2000/svg" xmlns:xlink="http://www.w3.org/1999/xlink">
    <title>切片</title>
    <g id="移动端" stroke="none" stroke-width="1" fill="none" fill-rule="evenodd">
        <g id="钱包首页" transform="translate(-166.000000, -128.000000)" fill-rule="nonzero">
            <g id="编组-6" transform="translate(20.000000, 104.000000)">
                <g id="编组-2" transform="translate(24.000000, 24.000000)">
                    <g id="复制" transform="translate(122.000000, 0.000000)">
                        <rect id="矩形" fill="#000000" opacity="0" x="0" y="0" width="16" height="16"></rect>
                        <path d="M11.2333971,3.72973038 C11.8024239,3.72973038 12.264242,4.16140858 12.2661324,4.69507226 L12.2661324,4.69507226 L12.2661324,14.1457692 C12.2661324,14.6799251 11.8063765,15.1111111 11.2368281,15.1111111 L11.2368281,15.1111111 L1.91819319,15.1111111 C1.3486448,15.1111111 0.888888889,14.6799251 0.888888889,14.1457692 L0.888888889,14.1457692 L0.888888889,4.69507226 C0.888888889,4.16091642 1.3486448,3.72973038 1.91819319,3.72973038 L1.91819319,3.72973038 Z M10.8442786,5.15572144 L2.31108741,5.15572144 L2.31108741,13.6889126 L10.8442786,13.6889126 L10.8442786,5.15572144 Z M14.0777942,0.885333333 C14.6061762,0.885333333 15.042118,1.25754565 15.1032132,1.73799986 L15.1105295,1.85067521 L15.1105295,11.3013722 C15.1105295,11.797374 14.7141073,12.2045907 14.2014632,12.2602339 L14.0812252,12.2667141 L13.6882859,12.2663333 L13.6886756,2.31132439 L3.73328594,2.31033333 L3.73328594,1.85067521 C3.73328594,1.35467335 4.12970813,0.947456694 4.64235219,0.891813507 L4.76259024,0.885333333 L14.0777942,0.885333333 Z" id="形状结合" fill="#FFFFFF"></path>
                    </g>
                </g>
            </g>
        </g>
    </g>
</svg>