<?xml version="1.0" encoding="UTF-8"?>
<svg width="14px" height="16px" viewBox="0 0 14 16" version="1.1" xmlns="http://www.w3.org/2000/svg" xmlns:xlink="http://www.w3.org/1999/xlink">
    <title>切片</title>
    <defs>
        <radialGradient cx="50%" cy="50%" fx="50%" fy="50%" r="57.1428571%" gradientTransform="translate(0.500000,0.500000),scale(1.000000,0.875000),rotate(90.000000),translate(-0.500000,-0.500000)" id="radialGradient-1">
            <stop stop-color="#FFFFFF" stop-opacity="0.402208875" offset="0%"></stop>
            <stop stop-color="#FFFFFF" stop-opacity="0" offset="100%"></stop>
        </radialGradient>
        <path d="M0,8.09471191 L0,3.21765223 C-1.62696301e-16,2.79570201 0.264849886,2.41915596 0.661960747,2.27652022 L5.98588224,0.364254542 C6.64145757,0.128782589 7.35854243,0.128782589 8.01411776,0.364254542 L13.3380393,2.27652022 C13.7351501,2.41915596 14,2.79570201 14,3.21765223 L14,8.09471191 L14,8.09471191 C14,11.5295975 8.90134809,16 7,16 C5.09865191,16 0,11.5295975 0,8.09471191 Z" id="path-2"></path>
    </defs>
    <g id="移动端" stroke="none" stroke-width="1" fill="none" fill-rule="evenodd">
        <g id="钱包首页" transform="translate(-245.000000, -125.000000)">
            <g id="编组" transform="translate(245.000000, 125.000000)">
                <mask id="mask-3" fill="white">
                    <use xlink:href="#path-2"></use>
                </mask>
                <path stroke="#FFFFFF" d="M6.15490187,0.834820548 C6.70121464,0.63859392 7.29878536,0.63859392 7.84509813,0.834820548 L7.84509813,0.834820548 L13.1690196,2.74708623 L13.5,8.09471191 C13.5,9.52113088 12.5279227,11.1233949 11.3323657,12.4735696 C9.85277803,14.1445077 7.98453224,15.5 7,15.5 C6.01546776,15.5 4.14722197,14.1445077 2.66763428,12.4735696 C1.47207727,11.1233949 0.5,9.52113088 0.5,8.09471191 L0.5,8.09471191 L0.5,3.21765223 Z"></path>
                <path d="M6.76583476,-1.58463383 L-0.234165242,2.12574011 C-0.539144467,2.28739539 -0.592473934,2.70212509 -0.338314093,2.93567922 L5.98505772,8.74639108 C6.55893438,9.27374136 7.44106562,9.27374136 8.01494228,8.74639108 L14.3383141,2.93567922 C14.5924739,2.70212509 14.5391445,2.28739539 14.2341652,2.12574011 L7.23416524,-1.58463383 C7.08770626,-1.66226491 6.91229374,-1.66226491 6.76583476,-1.58463383 Z M7,-0.577 L13.14,2.678 L7.33831409,8.01006622 L7.26216441,8.06774516 C7.07511643,8.18310303 6.8290666,8.16387672 6.66168591,8.01006622 L0.859,2.678 L7,-0.577 Z" id="路径-5" fill="#FFFFFF" fill-rule="nonzero" mask="url(#mask-3)"></path>
                <path d="M8.39250539,7.04038815 L7.33813357,8.01023219 C7.14702187,8.18584965 6.85297813,8.18584965 6.66168591,8.01006622 L5.60632076,7.04022831 C5.42349861,6.87222215 5.1450849,6.86382802 4.9524733,7.02051492 L-0.315526697,11.3059609 C-0.566950236,11.5104905 -0.560330741,11.8965018 -0.302042362,12.0922906 L6.69795764,17.3984601 C6.87656223,17.5338466 7.12343777,17.5338466 7.30204236,17.3984601 L14.3020424,12.0922906 C14.560346,11.8964902 14.5669481,11.5104499 14.3154907,11.3059316 L9.04649066,7.0204856 C8.85380864,6.86377116 8.57530117,6.8722469 8.39250539,7.04038815 Z M8.75,8.069 L13.19,11.679 L7,16.372 L0.809,11.679 L5.248,8.069 L5.98505106,8.74638495 C6.55893438,9.27374136 7.44106562,9.27374136 8.01494228,8.74639108 L8.75,8.069 Z" id="形状结合" fill="#FFFFFF" fill-rule="nonzero" mask="url(#mask-3)"></path>
            </g>
        </g>
    </g>
</svg>