<?xml version="1.0" encoding="UTF-8"?>
<svg width="56px" height="56px" viewBox="0 0 56 56" version="1.1" xmlns="http://www.w3.org/2000/svg" xmlns:xlink="http://www.w3.org/1999/xlink">
    <title>切片</title>
    <defs>
        <linearGradient x1="0%" y1="0%" x2="85.878172%" y2="84.6464285%" id="linearGradient-1">
            <stop stop-color="#FFFFFF" stop-opacity="0.67674074" offset="0%"></stop>
            <stop stop-color="#FFFFFF" stop-opacity="0.91688719" offset="100%"></stop>
        </linearGradient>
    </defs>
    <g id="移动端" stroke="none" stroke-width="1" fill="none" fill-rule="evenodd">
        <g id="钱包首页" transform="translate(-98.000000, -172.000000)">
            <g id="移动端/按钮/receive" transform="translate(98.000000, 172.000000)">
                <path d="M27.0184077,2.54555987e-16 L28.9815923,1.36350097e-15 C35.1819595,-1.43738202e-15 39.8110373,1.11390733 43.7221484,3.20559245 C47.6332596,5.29727756 50.7027224,8.36674045 52.7944076,12.2778516 C54.8860927,16.1889627 56,20.8180405 56,27.0184077 L56,28.9815923 C56,35.1819595 54.8860927,39.8110373 52.7944076,43.7221484 C50.7027224,47.6332596 47.6332596,50.7027224 43.7221484,52.7944076 C39.8110373,54.8860927 35.1819595,56 28.9815923,56 L27.0184077,56 C20.8180405,56 16.1889627,54.8860927 12.2778516,52.7944076 C8.36674045,50.7027224 5.29727756,47.6332596 3.20559245,43.7221484 C1.11390733,39.8110373 -4.63187884e-16,35.1819595 4.39380151e-16,28.9815923 L1.17867681e-15,27.0184077 C-1.2425432e-15,20.8180405 1.11390733,16.1889627 3.20559245,12.2778516 C5.29727756,8.36674045 8.36674045,5.29727756 12.2778516,3.20559245 C16.1889627,1.11390733 20.8180405,-2.68349057e-16 27.0184077,2.54555987e-16 Z" id="矩形" fill="url(#linearGradient-1)"></path>
                <g id="编组-5" transform="translate(20.000000, 18.000000)" fill="#0364FF">
                    <circle id="椭圆形" fill-opacity="0.059351781" cx="9" cy="9" r="9"></circle>
                    <path d="M0.950373753,18 L0.829029724,17.9922678 L0.710974645,17.9695924 L0.600371758,17.9334765 L0.50359826,17.8886488 L0.423490829,17.840711 L0.348375309,17.7851135 L0.278358028,17.721642 C0.243099344,17.6863833 0.211190236,17.6490434 0.182630702,17.6100179 L0.111351182,17.4964017 L0.0666685369,17.3999628 C0.037617583,17.3266942 0.0174780227,17.2493312 0.00740476075,17.1688391 L0,17.0496262 L0,6.48991788 C0,5.96504095 0.425496823,5.53954413 0.950373753,5.53954413 C1.43487554,5.53954413 1.83469841,5.90209763 1.89334275,6.37070502 L1.90074751,6.48991788 L1.90074751,14.7539456 L14.3776105,2.27835803 C14.7487546,1.90721399 15.3504979,1.90721399 15.721642,2.27835803 C16.0618573,2.61857339 16.0902086,3.15255626 15.8066958,3.52506621 L15.721642,3.62238948 L3.24394241,16.0992525 L11.5100821,16.0992525 C11.9945839,16.0992525 12.3944068,16.461806 12.4530511,16.9304134 L12.4604559,17.0496262 C12.4604559,17.534128 12.0979024,17.9339509 11.629295,17.9925952 L11.5100821,18 L0.950373753,18 Z" id="路径" fill-rule="nonzero"></path>
                </g>
            </g>
        </g>
    </g>
</svg>