<?xml version="1.0" encoding="UTF-8"?>
<svg width="56px" height="56px" viewBox="0 0 56 56" version="1.1" xmlns="http://www.w3.org/2000/svg" xmlns:xlink="http://www.w3.org/1999/xlink">
    <title>切片</title>
    <defs>
        <linearGradient x1="0%" y1="0%" x2="85.878172%" y2="84.6464285%" id="linearGradient-1">
            <stop stop-color="#FFFFFF" stop-opacity="0.682553165" offset="0%"></stop>
            <stop stop-color="#FFFFFF" stop-opacity="0.91688719" offset="100%"></stop>
        </linearGradient>
    </defs>
    <g id="移动端" stroke="none" stroke-width="1" fill="none" fill-rule="evenodd">
        <g id="钱包首页" transform="translate(-221.000000, -172.000000)">
            <g id="移动端/图标/scan" transform="translate(221.000000, 172.000000)">
                <path d="M27.0184077,2.54555987e-16 L28.9815923,1.36350097e-15 C35.1819595,-1.43738202e-15 39.8110373,1.11390733 43.7221484,3.20559245 C47.6332596,5.29727756 50.7027224,8.36674045 52.7944076,12.2778516 C54.8860927,16.1889627 56,20.8180405 56,27.0184077 L56,28.9815923 C56,35.1819595 54.8860927,39.8110373 52.7944076,43.7221484 C50.7027224,47.6332596 47.6332596,50.7027224 43.7221484,52.7944076 C39.8110373,54.8860927 35.1819595,56 28.9815923,56 L27.0184077,56 C20.8180405,56 16.1889627,54.8860927 12.2778516,52.7944076 C8.36674045,50.7027224 5.29727756,47.6332596 3.20559245,43.7221484 C1.11390733,39.8110373 -4.63187884e-16,35.1819595 4.39380151e-16,28.9815923 L1.17867681e-15,27.0184077 C-1.2425432e-15,20.8180405 1.11390733,16.1889627 3.20559245,12.2778516 C5.29727756,8.36674045 8.36674045,5.29727756 12.2778516,3.20559245 C16.1889627,1.11390733 20.8180405,-2.68349057e-16 27.0184077,2.54555987e-16 Z" id="矩形" fill="url(#linearGradient-1)"></path>
                <g id="scan" transform="translate(16.000000, 16.000000)" fill="#0364FF">
                    <rect id="矩形" fill-rule="nonzero" opacity="0" x="0" y="0" width="24" height="24"></rect>
                    <circle id="椭圆形" fill-opacity="0.0608763795" cx="16" cy="16" r="9"></circle>
                    <path d="M3.81818182,9.54545455 C3.32727273,9.54545455 3,9.21818182 3,8.72727273 L3,5.45454545 C3,4.14545455 4.14545455,3 5.45454545,3 L8.72727273,3 C9.21818182,3 9.54545455,3.32727273 9.54545455,3.81818182 C9.54545455,4.30909091 9.21818182,4.63636364 8.72727273,4.63636364 L5.45454545,4.63636364 C4.96363636,4.63636364 4.63636364,4.96363636 4.63636364,5.45454545 L4.63636364,8.72727273 C4.63636364,9.21818182 4.30909091,9.54545455 3.81818182,9.54545455 Z M8.72727273,21 L5.45454545,21 C4.14545455,21 3,19.8545455 3,18.5454545 L3,15.2727273 C3,14.7818182 3.32727273,14.4545455 3.81818182,14.4545455 C4.30909091,14.4545455 4.63636364,14.7818182 4.63636364,15.2727273 L4.63636364,18.5454545 C4.63636364,19.0363636 4.96363636,19.3636364 5.45454545,19.3636364 L8.72727273,19.3636364 C9.21818182,19.3636364 9.54545455,19.6909091 9.54545455,20.1818182 C9.54545455,20.6727273 9.21818182,21 8.72727273,21 Z M18.5454545,21 L15.2727273,21 C14.7818182,21 14.4545455,20.6727273 14.4545455,20.1818182 C14.4545455,19.6909091 14.7818182,19.3636364 15.2727273,19.3636364 L18.5454545,19.3636364 C19.0363636,19.3636364 19.3636364,19.0363636 19.3636364,18.5454545 L19.3636364,15.2727273 C19.3636364,14.7818182 19.6909091,14.4545455 20.1818182,14.4545455 C20.6727273,14.4545455 21,14.7818182 21,15.2727273 L21,18.5454545 C21,19.8545455 19.8545455,21 18.5454545,21 Z M20.1818182,9.54545455 C19.6909091,9.54545455 19.3636364,9.21818182 19.3636364,8.72727273 L19.3636364,5.45454545 C19.3636364,4.96363636 19.0363636,4.63636364 18.5454545,4.63636364 L15.2727273,4.63636364 C14.7818182,4.63636364 14.4545455,4.30909091 14.4545455,3.81818182 C14.4545455,3.32727273 14.7818182,3 15.2727273,3 L18.5454545,3 C19.8545455,3 21,4.14545455 21,5.45454545 L21,8.72727273 C21,9.21818182 20.6727273,9.54545455 20.1818182,9.54545455 Z M17.4545455,12.8181818 L6.54545455,12.8181818 C6.21818182,12.8181818 6,12.4909091 6,12 C6,11.5090909 6.21818182,11.1818182 6.54545455,11.1818182 L17.4545455,11.1818182 C17.7818182,11.1818182 18,11.5090909 18,12 C18,12.4909091 17.7818182,12.8181818 17.4545455,12.8181818 Z" id="形状" fill-rule="nonzero"></path>
                </g>
            </g>
        </g>
    </g>
</svg>