<?xml version="1.0" encoding="UTF-8"?>
<svg width="70px" height="12px" viewBox="0 0 70 12" version="1.1" xmlns="http://www.w3.org/2000/svg" xmlns:xlink="http://www.w3.org/1999/xlink">
    <title>切片</title>
    <defs>
        <linearGradient x1="0%" y1="48.8441586%" x2="100%" y2="51.1558414%" id="linearGradient-1">
            <stop stop-color="#398BFF" offset="0%"></stop>
            <stop stop-color="#8864FF" offset="100%"></stop>
        </linearGradient>
    </defs>
    <g id="移动端" stroke="none" stroke-width="1" fill="none" fill-rule="evenodd">
        <g id="钱包首页" transform="translate(-60.000000, -62.000000)" fill="url(#linearGradient-1)" fill-rule="nonzero">
            <g id="LOGO/UniPass-旧/文字" transform="translate(60.000000, 62.000000)">
                <path d="M1.45435437,0.896772636 C1.7639803,0.896772636 2.06090144,1.01988017 2.27968992,1.23896878 C2.4984784,1.45805738 2.62117909,1.755147 2.62075437,2.06477264 L2.62075437,2.06477264 L2.62075437,6.52877264 C2.62075437,8.3570393 3.37915437,9.27117264 4.89595437,9.27117264 C5.63622103,9.27117264 6.2004877,9.0498393 6.58875437,8.60717264 C6.97702103,8.16450597 7.17115437,7.47117264 7.17115437,6.52717264 L7.17115437,6.52717264 L7.17115437,2.06477264 C7.17115437,1.41970405 7.69408578,0.896772636 8.33915437,0.896772636 L8.33915437,0.896772636 L8.46629157,0.903787874 C9.0508724,0.967886367 9.50555437,1.46329132 9.50555437,2.06477264 L9.50555437,2.06477264 L9.50555437,6.61517264 C9.50555437,8.11170597 9.0996877,9.26370597 8.28795437,10.0711726 C7.47622103,10.8786393 6.34075437,11.2823915 4.88155437,11.2823915 C3.4244877,11.2855726 2.28955437,10.8818393 1.47675437,10.0711726 C0.663954368,9.26050597 0.257554368,8.10850597 0.257554368,6.61517264 L0.257554368,6.61517264 L0.257554368,2.06477264 C0.257554368,1.41970405 0.78048578,0.896772636 1.42555437,0.896772636 L1.42555437,0.896772636 Z M65.4515142,0.72156346 L65.7551544,0.722372636 C66.4009253,0.718617022 67.0447019,0.794387057 67.6719544,0.947972636 C67.925495,1.01073175 68.1750156,1.08874031 68.4191544,1.18157264 C68.6634972,1.27619913 68.8593351,1.46539409 68.9623341,1.7063273 C69.065333,1.94726052 69.0667825,2.21955655 68.9663544,2.46157264 L68.9663544,2.46157264 L68.917003,2.56393896 C68.6805492,2.98987935 68.1591221,3.18269552 67.6959544,2.99757264 C67.0760856,2.7492025 66.4149227,2.62000975 65.7471544,2.61677264 C65.0815544,2.61677264 64.6015544,2.72237264 64.2815544,2.93677264 C63.9827922,3.11306034 63.8000533,3.43468078 63.8015544,3.78157264 C63.802621,4.13250597 63.9844877,4.39277264 64.3471544,4.56237264 C64.8845212,4.78678588 65.4430531,4.95670394 66.0143544,5.06957264 C66.6616081,5.21590732 67.2995439,5.40076979 67.9247544,5.62317264 C68.4171161,5.80478981 68.8568618,6.10546596 69.2047544,6.49837264 C69.5567544,6.8962393 69.7359544,7.43490597 69.7423544,8.11437264 C69.7469747,8.68527701 69.5760623,9.24381431 69.2527544,9.71437264 C68.8856061,10.2289339 68.3778509,10.626694 67.7903544,10.8599726 C67.0347981,11.1610138 66.2257676,11.3047446 65.4127544,11.2823726 C64.6211035,11.2862728 63.832929,11.1774476 63.0719544,10.9591726 C62.7405447,10.8645149 62.4164842,10.7457997 62.1023544,10.6039726 C61.7745122,10.4640216 61.5488328,10.1567198 61.5134082,9.8020201 C61.4779836,9.44732043 61.63843,9.10145545 61.9321183,8.8994309 C62.2258067,8.69740635 62.6061769,8.67125033 62.9247544,8.83117264 C63.1510343,8.9336351 63.3828623,9.02337495 63.6191544,9.09997264 C64.2029577,9.29068908 64.8129931,9.38894257 65.4271544,9.39117264 C66.0991544,9.3922393 66.5951544,9.29250597 66.9151544,9.09197264 C67.2115403,8.93538637 67.3964658,8.62717733 67.3951544,8.29197264 C67.3992309,8.05709759 67.2940076,7.83364588 67.1103544,7.68717264 C66.8947807,7.51258896 66.647618,7.381131 66.3823544,7.29997264 C66.0847544,7.20397264 65.6831544,7.09730597 65.1775544,6.97997264 C64.5302446,6.83319879 63.8923032,6.64780041 63.2671544,6.42477264 C62.7711334,6.24315538 62.3302898,5.93676904 61.9871544,5.53517264 C61.6319544,5.12770597 61.4543544,4.58317264 61.4543544,3.90157264 C61.4479823,3.32835726 61.6153243,2.76664594 61.9343544,2.29037264 C62.2966206,1.77572618 62.8008676,1.37766575 63.3855544,1.14477264 C64.138162,0.843192025 64.9446963,0.699420899 65.7551544,0.722372636 Z M55.5633224,0.721595638 L55.8671544,0.722372636 C56.5129253,0.718617022 57.1567019,0.794387057 57.7839544,0.947972636 C58.0374309,1.01096066 58.2869379,1.08896498 58.5311544,1.18157264 C58.7757858,1.27578704 58.9718437,1.46504188 59.0746352,1.70619492 C59.1774267,1.94734796 59.1781912,2.21984666 59.0767544,2.46157264 L59.0767544,2.46157264 L59.0275263,2.56407448 C58.7915251,2.99057408 58.26953,3.18356737 57.8063544,2.99757264 C57.1869965,2.74936304 56.5263879,2.62017253 55.8591544,2.61677264 C55.1919544,2.61677264 54.7119544,2.72237264 54.3919544,2.93677264 C54.093672,3.11353189 53.911104,3.43485155 53.9119544,3.78157264 C53.9119544,4.13250597 54.0943544,4.39277264 54.4591544,4.56237264 C54.9985793,4.78719471 55.5592752,4.9571188 56.1327544,5.06957264 C56.778927,5.21603031 57.4157908,5.40089177 58.0399544,5.62317264 C58.5302504,5.80457342 58.9682473,6.104082 59.3151544,6.49517264 C59.6692877,6.8930393 59.8464364,7.43277264 59.8464364,8.11437264 C59.850725,8.68500144 59.68044,9.24331299 59.3583544,9.71437264 C58.9900154,10.2291015 58.4811947,10.6268259 57.8927544,10.8599726 C57.1394103,11.1586776 56.3332547,11.3012926 55.5231544,11.2791726 C54.7316496,11.284222 53.9434627,11.1764726 53.1823544,10.9591726 C52.8509447,10.8645149 52.5268842,10.7457997 52.2127544,10.6039726 C51.8849122,10.4640216 51.6592328,10.1567198 51.6238082,9.8020201 C51.5883836,9.44732043 51.74883,9.10145545 52.0425183,8.8994309 C52.3362067,8.69740635 52.7165769,8.67125033 53.0351544,8.83117264 C53.2613223,8.93390181 53.4931655,9.02364756 53.7295544,9.09997264 C54.3132955,9.29094563 54.9233716,9.38920567 55.5375544,9.39117264 C56.2095544,9.3922393 56.7055544,9.29250597 57.0255544,9.09197264 C57.3214278,8.9348458 57.5061476,8.62697951 57.5055544,8.29197264 C57.5089003,8.05725495 57.4038209,7.83410883 57.2207544,7.68717264 C57.0043749,7.51290654 56.7567538,7.3814936 56.4911544,7.29997264 C56.194621,7.20397264 55.7935544,7.09730597 55.2879544,6.97997264 C54.6406446,6.83319879 54.0027032,6.64780041 53.3775544,6.42477264 C52.8818669,6.2425141 52.4411746,5.93623294 52.0975544,5.53517264 C51.7423544,5.12770597 51.5647544,4.58317264 51.5647544,3.90157264 C51.5591812,3.32846949 51.7264543,2.76698921 52.0447544,2.29037264 C52.4073589,1.77604643 52.9115006,1.37806906 53.4959544,1.14477264 C54.2491472,0.843283538 55.056184,0.699519903 55.8671544,0.722372636 Z M20.5311544,0.896772636 C20.8417581,0.895496171 21.140078,1.01798922 21.3601598,1.23717022 C21.5802415,1.45635121 21.7039544,1.75416633 21.7039544,2.06477264 L21.7039544,2.06477264 L21.7039544,9.78797264 C21.7039544,10.5154805 21.1146617,11.1054897 20.3871544,11.1063726 L20.3871544,11.1063726 L20.2404443,11.0982362 C19.901301,11.0604296 19.5876763,10.8924064 19.3679544,10.6263726 L19.3679544,10.6263726 L14.6735544,4.90797264 L14.6735544,9.93997264 C14.6893779,10.36728 14.4704364,10.7690777 14.1027896,10.9874304 C13.7351429,11.205783 13.2775658,11.205783 12.9099191,10.9874304 C12.5422724,10.7690777 12.3233309,10.36728 12.3391544,9.93997264 L12.3391544,9.93997264 L12.3391544,2.22317264 C12.3388009,1.66220665 12.6913806,1.16167389 13.2197065,0.973114341 C13.7480324,0.784554789 14.3378519,0.948745218 14.6927544,1.38317264 L14.6927544,1.38317264 L19.3631544,7.09677264 L19.3631544,2.06477264 C19.3631544,1.41970405 19.8860858,0.896772636 20.5311544,0.896772636 Z M34.4895544,0.896772636 C35.2978885,0.878500246 36.1008213,1.03286845 36.8447544,1.34957264 C37.4720284,1.61883069 38.0066055,2.06607313 38.3823544,2.63597264 C38.7522653,3.22509246 38.9403665,3.91015906 38.9231544,4.60557264 C38.9386009,5.29825641 38.7505761,5.98026362 38.3823544,6.56717264 C38.0089025,7.13759779 37.4734426,7.58335008 36.8447544,7.84717264 C36.0997423,8.15954568 35.2971765,8.31111721 34.4895544,8.29197264 L32.4319544,8.29197264 L32.4319544,9.92557264 C32.4478728,10.358088 32.2262074,10.7647386 31.8540663,10.9857226 C31.4819252,11.2067066 31.0187835,11.2067066 30.6466424,10.9857226 C30.2745013,10.7647386 30.052836,10.358088 30.0687544,9.92557264 L30.0687544,9.92557264 L30.0687544,2.08557264 C30.0687544,1.42901653 30.6009983,0.896772636 31.2575544,0.896772636 L31.2575544,0.896772636 Z M25.8831544,0.896772636 C26.5361759,0.896772636 27.0655544,1.42615115 27.0655544,2.07917264 L27.0655544,2.07917264 L27.0655544,9.91917264 C27.0814728,10.351688 26.8598074,10.7583386 26.4876663,10.9793226 C26.1155252,11.2003066 25.6523835,11.2003066 25.2802424,10.9793226 C24.9081013,10.7583386 24.686436,10.351688 24.7023544,9.91917264 L24.7023544,9.91917264 L24.7023544,2.07917264 C24.7019296,1.76572788 24.8261475,1.46497557 25.0476365,1.24318644 C25.2691255,1.02139732 25.5697093,0.896772636 25.8831544,0.896772636 Z M44.9599544,0.89481894 C45.6704844,0.89481894 46.3144042,1.31316057 46.6031544,1.96237264 L46.6031544,1.96237264 L50.0015544,9.56397264 C50.1534152,9.90303449 50.1231724,10.2959437 49.9212115,10.6077713 C49.7192506,10.9195989 49.3730711,11.1079726 49.0015544,11.1079726 L49.0015544,11.1079726 L48.9455544,11.1079726 C48.5017374,11.1077603 48.1018583,10.8399108 47.9327544,10.4295726 L47.9327544,10.4295726 L47.3087544,8.91917264 L42.5679544,8.91917264 L41.9439544,10.4295726 C41.7924188,10.7936824 41.4569421,11.0483005 41.0654901,11.096304 C40.6740382,11.1443075 40.2869796,10.9782935 40.051956,10.6615872 C39.8169324,10.3448809 39.7701885,9.92632387 39.9295544,9.56557264 L39.9295544,9.56557264 L43.3167544,1.96237264 C43.6055045,1.31316057 44.2494243,0.89481894 44.9599544,0.89481894 Z M44.9519544,3.21357264 L43.3327544,7.12237264 L46.5647544,7.12237264 L44.9519544,3.21357264 Z M34.3535544,2.82317264 L32.4335544,2.82317264 L32.4335544,6.36717264 L34.3535544,6.36717264 C35.0628877,6.36610597 35.602621,6.2130393 35.9727544,5.90797264 C36.3512013,5.58309665 36.5564997,5.10032006 36.5279544,4.60237264 C36.5268877,4.02850597 36.341821,3.58850597 35.9727544,3.28237264 C35.6036877,2.9762393 35.0639544,2.82317264 34.3535544,2.82317264 L34.3535544,2.82317264 Z" id="形状结合"></path>
            </g>
        </g>
    </g>
</svg>