<?xml version="1.0" encoding="UTF-8"?>
<svg width="25px" height="25px" viewBox="0 0 25 25" version="1.1" xmlns="http://www.w3.org/2000/svg" xmlns:xlink="http://www.w3.org/1999/xlink">
    <title>切片</title>
    <defs>
        <linearGradient x1="0%" y1="0.0134410558%" x2="100%" y2="99.9865589%" id="linearGradient-1">
            <stop stop-color="#398BFF" offset="0%"></stop>
            <stop stop-color="#8864FF" offset="100%"></stop>
        </linearGradient>
    </defs>
    <g id="移动端" stroke="none" stroke-width="1" fill="none" fill-rule="evenodd">
        <g id="钱包首页" transform="translate(-27.000000, -56.000000)" fill="url(#linearGradient-1)" fill-rule="nonzero">
            <g id="形状结合" transform="translate(27.999971, 56.003197)">
                <path d="M11.040029,23.1600029 C13.3861471,20.1425602 17.300233,18.806641 21.001629,19.7600029 L21.001629,19.7600029 L21.124829,19.7920029 L21.040029,19.8880029 C20.7813482,20.1847298 20.5079376,20.4682865 20.220829,20.7376029 L20.220829,20.7376029 L20.192029,20.7648029 L20.152029,20.7648029 C17.05423,20.1884382 13.8933739,21.3860219 11.955229,23.8704029 L11.955229,23.8704029 L11.905629,23.9360029 L11.859229,23.9968029 L11.820829,23.9968029 C11.424029,23.9904029 11.025629,23.9648029 10.640029,23.9216029 L10.640029,23.9216029 L10.513629,23.9072029 L10.584029,23.8000029 C10.720029,23.5792029 10.880029,23.3632029 11.040029,23.1600029 Z M18.774429,21.6336029 L18.899229,21.6352029 L19.137629,21.6352029 L18.944029,21.7728029 C17.3336585,22.9193957 15.4649623,23.6503857 13.504029,23.9008029 L13.504029,23.9008029 L13.268829,23.9296029 L13.440029,23.7696029 C14.8727409,22.3910068 16.7861851,21.6248257 18.774429,21.6336029 L18.774429,21.6336029 Z M15.982429,17.5616029 C16.141512,17.5276061 16.307553,17.5624631 16.4395347,17.6575631 C16.5715165,17.7526631 16.657131,17.8991376 16.675229,18.0608029 L16.675229,18.0608029 L16.6786706,18.1421523 C16.6660088,18.3982114 16.4826119,18.6203941 16.224029,18.6752029 C13.8668065,19.1837748 11.7646914,20.5079373 10.288029,22.4144029 C9.98294828,22.8082931 9.70599603,23.2231868 9.45922896,23.6560029 L9.45922896,23.6560029 L9.43042896,23.7072029 L9.37442896,23.6944029 C9.03842896,23.6192029 8.69602896,23.5296029 8.37602896,23.4256029 L8.37602896,23.4256029 L8.28162896,23.3952029 L8.32642896,23.3120029 C8.6311223,22.7507298 8.98164686,22.2155778 9.37442896,21.7120029 C10.8710384,19.778763 12.9509506,18.3794372 15.305629,17.7216029 C15.5317623,17.6650695 15.7573623,17.6117362 15.982429,17.5616029 Z M14.841629,15.5728029 C17.6136716,14.8493628 20.5440824,15.0275748 23.208029,16.0816029 L23.208029,16.0816029 L23.278429,16.1104029 L23.252829,16.1824029 C23.136029,16.4960029 23.003229,16.8096029 22.860829,17.1120029 L22.860829,17.1120029 L22.830429,17.1792029 L22.761629,17.1520029 C17.7199945,15.15468 11.9651252,16.7181492 8.62722896,20.9920029 C8.14187104,21.6154953 7.71752251,22.2841657 7.36002896,22.9888029 L7.36002896,22.9888029 L7.32642896,23.0544029 L7.25922896,23.0240029 C6.95202896,22.8928029 6.64642896,22.7472029 6.35042896,22.5872029 L6.35042896,22.5872029 L6.28322896,22.5504029 L6.31682896,22.4832029 C6.71023699,21.7054467 7.17801906,20.9676049 7.71362896,20.2800029 C9.50373688,17.9658922 12.0104777,16.3104867 14.841629,15.5728029 Z M5.75806408,19.58911 C5.93091547,19.5717629 6.10245664,19.6326994 6.22562896,19.7552029 L6.22562896,19.7552029 C6.41973919,19.9543402 6.44979449,20.2595684 6.29762896,20.4896029 C5.98799747,20.9611368 5.70644209,21.4505196 5.45442896,21.9552029 L5.45442896,21.9552029 L5.41602896,22.0352029 L5.34082896,21.9856029 C5.05922896,21.7968029 4.78242896,21.5936029 4.51682896,21.3824029 L4.51682896,21.3824029 L4.46722896,21.3424029 L4.49602896,21.2848029 C4.74843581,20.7898706 5.02778837,20.3091491 5.33282896,19.8448029 C5.42920155,19.7002662 5.58521268,19.6064571 5.75806408,19.58911 Z M7.92642896,13.9904029 L7.96642896,14.0048029 C8.39270094,14.1649875 8.84009548,14.2620129 9.29442896,14.2928029 L9.29442896,14.2928029 L9.53122896,14.3088029 L9.33122896,14.4368029 C7.79090321,15.4226487 6.4313962,16.6657967 5.31202896,18.1120029 C4.71615873,18.8782537 4.19031299,19.696474 3.74082896,20.5568029 L3.74082896,20.5568029 L3.69282896,20.6496029 L3.61762896,20.5760029 C3.36962896,20.3312029 3.12162896,20.0688029 2.88962896,19.7984029 L2.88962896,19.7984029 L2.85442896,19.7568029 L2.88002896,19.7104029 C4.10955273,17.4646604 5.82153989,15.5193446 7.89282896,14.0144029 L7.89282896,14.0144029 L7.92642896,13.9904029 Z M6.56962896,18.2064029 C10.830991,13.3022899 17.7296271,11.6330062 23.761629,14.0464029 L23.761629,14.0464029 L23.820829,14.0752029 L23.809629,14.1376029 C23.793629,14.2272029 23.777629,14.3152029 23.760029,14.4032029 C23.710429,14.6448029 23.652829,14.8928029 23.587229,15.1360029 L23.587229,15.1360029 L23.563229,15.2224029 L23.481629,15.1872029 C21.7804006,14.4780308 19.9551503,14.1141773 18.112029,14.1168029 C17.5193829,14.1169608 16.9273157,14.1538314 16.339229,14.2272029 C12.887758,14.6489476 9.71697405,16.3407168 7.44482896,18.9728029 C7.33999812,19.0950049 7.1890318,19.1680571 7.02815235,19.1744315 C6.86727291,19.180806 6.7109999,19.1199274 6.59682896,19.0064029 L6.59682896,19.0064029 L6.53123668,18.9293894 C6.37692842,18.7126433 6.387708,18.4122995 6.56962896,18.2064029 Z M18.014429,17.3024029 C19.4736988,17.2479913 20.9298639,17.4739386 22.304029,17.9680029 L22.304029,17.9680029 L22.393629,18.0000029 L22.345629,18.0816029 C22.169629,18.3792029 21.982429,18.6688029 21.780829,18.9504029 L21.780829,18.9504029 L21.745629,19.0000029 L21.691229,18.9808029 C20.6422311,18.632117 19.5438597,18.454908 18.438429,18.4560029 L18.438429,18.4560029 L18.065629,18.4560029 C17.7620898,18.4680576 17.5005376,18.2441689 17.465629,17.9424029 L17.465629,17.9424029 L17.463073,17.8474209 C17.4700611,17.7215645 17.5181354,17.600465 17.6013184,17.5034586 C17.7052972,17.3822006 17.8548485,17.3094158 18.014429,17.3024029 Z M6.03202896,12.6368029 L6.08002896,12.6976029 C6.30073767,12.9484976 6.54685213,13.1758451 6.81442896,13.3760029 L6.81442896,13.3760029 L6.89762896,13.4368029 L6.81602896,13.4992029 L6.81602896,13.4880029 C4.95940999,14.9333704 3.40236915,16.7268206 2.23202896,18.7680029 L2.23202896,18.7680029 L2.16962896,18.8752029 L2.09922896,18.7728029 C1.88482896,18.4672029 1.68322896,18.1408029 1.50082896,17.8128029 L1.50082896,17.8128029 L1.47842896,17.7728029 L1.50242896,17.7328029 C1.87844771,17.1200398 2.28758797,16.5282286 2.72802896,15.9600029 C3.674626,14.740838 4.76460739,13.6401126 5.97442896,12.6816029 L5.97442896,12.6816029 L6.03202896,12.6368029 Z M2.44012021,13.1817586 C2.59961133,13.1769164 2.75406989,13.2379045 2.86722896,13.3504029 L2.86722896,13.3504029 C3.08242052,13.5694188 3.09086236,13.9211623 2.88322896,14.1504029 C2.56856229,14.4981362 2.26669562,14.8586695 1.97762896,15.2320029 C1.65122896,15.6528029 1.33122896,16.1008029 1.02882896,16.5616029 L1.02882896,16.5616029 L0.947228955,16.6864029 L0.891228955,16.5488029 C0.732909819,16.1614936 0.594594175,15.766306 0.476828955,15.3648029 L0.476828955,15.3648029 L0.465628955,15.3280029 L0.488028955,15.2976029 C0.680028955,15.0272029 0.873628955,14.7648029 1.06402896,14.5200029 C1.37229562,14.1274695 1.69229562,13.7461362 2.02402896,13.3760029 C2.13015487,13.2568469 2.28062909,13.1866009 2.44012021,13.1817586 Z M4.92482896,7.99680288 L4.92482896,9.38560288 L4.89282896,9.40800288 C3.16275333,10.6383085 1.62214575,12.1153081 0.320028955,13.7920029 L0.320028955,13.7920029 L0.160028955,13.9936029 L0.131228955,13.8128029 C0.0583212741,13.3359092 0.0145069366,12.8550201 2.89552996e-05,12.3728029 L2.89552996e-05,12.3728029 L2.89552996e-05,12.3424029 L0.0256289553,12.3168029 C1.41003804,10.6850382 3.01853895,9.25753404 4.80322896,8.07680288 L4.80322896,8.07680288 L4.92482896,7.99680288 Z M15.790429,10.9200029 C18.5476383,10.5745648 21.3474939,10.9045733 23.948829,11.8816029 L23.948829,11.8816029 L24.000029,11.9008029 L24.000029,12.0000029 C24.000029,12.3328029 23.985629,12.6768029 23.956829,13.0208029 L23.956829,13.0208029 L23.947229,13.1264029 L23.849629,13.0864029 C21.9724786,12.3310829 19.9674403,11.9443077 17.944029,11.9472029 C16.4146685,11.945578 14.8928206,12.1610609 13.424029,12.5872029 L13.424029,12.5872029 L13.195229,12.6528029 L13.340829,12.4640029 C13.618431,12.1015843 13.8415882,11.7005483 14.003229,11.2736029 L14.003229,11.2736029 L14.019229,11.2352029 L14.059229,11.2256029 C14.6307609,11.0945483 15.2085691,10.9925507 15.790429,10.9200029 Z M5.03202896,10.6176029 L5.06082896,10.7328029 C5.14246254,11.0683099 5.26161307,11.3935587 5.41602896,11.7024029 L5.41602896,11.7024029 L5.44002896,11.7600029 L5.39042896,11.7984029 C4.98829562,12.1141362 4.59896229,12.4458695 4.22242896,12.7936029 C3.99414575,13.0017323 3.64307405,12.995413 3.42242896,12.7792029 L3.42242896,12.7792029 L3.36160825,12.7074797 C3.28890622,12.6060796 3.25037775,12.4831128 3.2532782,12.3567015 C3.25690376,12.1986875 3.32494705,12.0490186 3.44162896,11.9424029 C3.92056229,11.5008029 4.41869562,11.0832029 4.93602896,10.6896029 L4.93602896,10.6896029 L5.03202896,10.6176029 Z M22.8143504,9.51563779 C22.9593371,9.41846255 23.1404143,9.39185091 23.307229,9.44320288 C23.523229,9.50880288 23.736029,9.57760288 23.947229,9.65120288 L23.947229,9.65120288 L23.996829,9.67040288 L23.996829,10.9008029 L23.891229,10.8624029 C23.5861623,10.7504029 23.278429,10.6469362 22.968029,10.5520029 C22.7053182,10.4713792 22.5350663,10.2176706 22.560029,9.94400288 L22.560029,9.94400288 L22.5786654,9.84203712 C22.6153652,9.70964649 22.6983611,9.59337797 22.8143504,9.51563779 Z M4.39682896,5.69920288 L4.44002896,5.75680288 C4.65209153,6.04140823 4.79902302,6.36913647 4.87042896,6.71680288 L4.87042896,6.71680288 L4.88162896,6.76480288 L4.83522896,6.79360288 C3.10824477,7.86218166 1.52844538,9.15205532 0.136028955,10.6304029 L0.136028955,10.6304029 L2.89552996e-05,10.7728029 L2.89552996e-05,9.11680288 L0.0240289553,9.09600288 C1.33129598,7.81839781 2.77766021,6.69136075 4.33602896,5.73600288 L4.33602896,5.73600288 L4.39682896,5.69920288 Z M15.384029,8.76640288 C17.3642647,8.51378353 19.371991,8.57588373 21.332829,8.95040288 C21.6253135,9.00755458 21.8263007,9.27784777 21.796829,9.57440288 L21.796829,9.57440288 C21.7816168,9.74129892 21.698885,9.88950779 21.5688946,9.98753339 C21.4389041,10.085559 21.2736595,10.1243487 21.113629,10.0944029 C20.0137064,9.88251347 18.8961744,9.77536755 17.776029,9.77440288 C17.0271829,9.77540266 16.2791061,9.82242463 15.536029,9.91520288 C15.166429,9.96160288 14.780829,10.0224029 14.388829,10.0960029 L14.388829,10.0960029 L14.288029,10.1168029 L14.288029,10.0128029 C14.305629,9.87520288 14.305629,9.74080288 14.305629,9.61280288 L14.305629,9.61280288 L14.305629,8.93760288 L14.371229,8.92640288 C14.715229,8.85920288 15.056029,8.80640288 15.384029,8.76640288 Z M14.979229,6.61120288 C17.9924196,6.22616703 21.0534114,6.50801424 23.945629,7.43680288 L23.945629,7.43680288 L24.000029,7.45440288 L24.000029,8.67200288 L23.896029,8.63680288 C21.871339,7.95001669 19.7476287,7.60029907 17.609629,7.60160288 C16.7777732,7.60308051 15.9468219,7.6565179 15.121629,7.76160288 C14.902429,7.78880288 14.672029,7.82240288 14.396829,7.86720288 L14.396829,7.86720288 L14.305629,7.88160288 L14.305629,6.70720288 L14.372829,6.69760288 C14.596829,6.66240288 14.795229,6.63520288 14.979229,6.61120288 Z M2.46242896,4.76639385 L2.65037561,4.77334566 C2.90015987,4.79216879 3.14598139,4.84907069 3.37922896,4.94240288 L3.37922896,4.94240288 L3.52162896,5.00000288 L3.39202896,5.08160288 C2.23957191,5.81778108 1.14902888,6.646658 0.131228955,7.56000288 L0.131228955,7.56000288 L1.43673452e-05,7.67680288 L1.43673452e-05,7.22880288 C-0.00188358008,6.67587023 0.184311135,6.13872669 0.528028955,5.70560288 C0.993454941,5.11093535 1.7072822,4.76435421 2.46242896,4.76639385 L2.46242896,4.76639385 Z M14.572829,4.45760288 C17.4900096,4.08998997 20.4507974,4.29157783 23.291229,5.05120288 C23.488029,5.10400288 23.700829,5.16480288 23.944029,5.23840288 L23.944029,5.23840288 L23.998429,5.25440288 L23.998429,6.46080288 L23.896029,6.42880288 C21.8072728,5.77056725 19.6300463,5.43602439 17.440029,5.43680288 C16.5306902,5.4374367 15.6222707,5.49461369 14.720029,5.60800288 L14.720029,5.60800288 L14.478429,5.64000288 L14.308829,5.66400288 L14.308829,4.84480288 C14.308829,4.75520288 14.318429,4.66240288 14.318429,4.55680288 L14.318429,4.55680288 L14.318429,4.49280288 L14.459229,4.47360288 Z M17.929629,2.12160288 C19.8365966,2.17398266 21.730968,2.44836581 23.574429,2.93920288 L23.574429,2.93920288 L23.611229,2.94880288 L23.627229,2.98400288 C23.7799137,3.35038739 23.8873727,3.73401601 23.947229,4.12640288 L23.947229,4.12640288 L23.961629,4.25920288 L23.844829,4.22560288 C23.654429,4.16960288 23.478429,4.12000288 23.305629,4.07360288 C21.5406926,3.60229895 19.7268775,3.33811985 17.900829,3.28640288 C17.739156,3.28238742 17.5865247,3.21096145 17.4798575,3.08940336 C17.3731902,2.96784527 17.3222027,2.80722692 17.339229,2.64640288 L17.339229,2.64640288 L17.3569666,2.54841406 C17.4255811,2.2955721 17.6593476,2.11518703 17.929629,2.12160288 Z M15.920029,2.14880288 C16.0883025,2.13976904 16.2522036,2.2042663 16.3691935,2.32555503 C16.4861834,2.44684376 16.5447267,2.61296472 16.529629,2.78080288 L16.529629,2.78080288 C16.5092834,3.06709382 16.2760309,3.29011591 15.988829,3.30400288 C15.540829,3.32960288 15.091229,3.36640288 14.643229,3.41600288 L14.643229,3.41600288 L14.521629,3.42880288 L14.560029,3.31360288 C14.682495,2.93538435 14.8501039,2.57330625 15.059229,2.23520288 L15.059229,2.23520288 L15.080029,2.20320288 L15.120029,2.20320288 C15.390429,2.18080288 15.656029,2.16160288 15.920029,2.14880288 Z M19.166429,1.43862935e-06 C20.5389735,-0.00105566272 21.8474683,0.580497602 22.766429,1.60000288 L22.766429,1.60000288 L22.926429,1.78240288 L22.686429,1.72800288 C20.8488756,1.31144891 18.9706051,1.10108262 17.086429,1.10080288 C16.822429,1.10080288 16.553629,1.10560288 16.286429,1.11680288 L16.286429,1.11680288 L16.040029,1.11680288 L16.236829,0.972802881 C17.0078088,0.391005383 17.9360974,0.0548143871 18.900829,0.00800288118 C18.993629,1.43862935e-06 19.080029,1.43862935e-06 19.166429,1.43862935e-06 Z"></path>
            </g>
        </g>
    </g>
</svg>