<?xml version="1.0" encoding="UTF-8"?>
<svg width="24px" height="24px" viewBox="0 0 24 24" version="1.1" xmlns="http://www.w3.org/2000/svg" xmlns:xlink="http://www.w3.org/1999/xlink">
    <title>切片</title>
    <g id="移动端" stroke="none" stroke-width="1" fill="none" fill-rule="evenodd">
        <g id="钱包首页" transform="translate(-323.000000, -56.000000)">
            <g id="移动端/按钮/钱包" transform="translate(323.000000, 56.000000)">
                <rect id="矩形" fill="#000000" fill-rule="nonzero" opacity="0" x="0" y="0" width="24" height="24"></rect>
                <g id="编组-4" transform="translate(2.000000, 4.500000)">
                    <path d="M16.7180574,-1 C17.447014,-1 17.6972968,-0.888753659 17.9600217,-0.748246846 C18.2998308,-0.566514958 18.566515,-0.299830798 18.7482468,0.0399782892 C18.8887537,0.302703186 19,0.552986007 19,1.2819426 L19,1.2819426 L19,13.7180574 C19,14.447014 18.8887537,14.6972968 18.7482468,14.9600217 C18.566515,15.2998308 18.2998308,15.566515 17.9600217,15.7482468 C17.6972968,15.8887537 17.447014,16 16.7180574,16 L16.7180574,16 L1.2819426,16 C0.552986007,16 0.302703186,15.8887537 0.0399782892,15.7482468 C-0.299830798,15.566515 -0.566514958,15.2998308 -0.748246846,14.9600217 C-0.888753659,14.6972968 -1,14.447014 -1,13.7180574 L-1,13.7180574 L-1,1.2819426 C-1,0.552986007 -0.888753659,0.302703186 -0.748246846,0.0399782892 C-0.566514958,-0.299830798 -0.299830798,-0.566514958 0.0399782892,-0.748246846 C0.302703186,-0.888753659 0.552986007,-1 1.2819426,-1 L1.2819426,-1 Z" id="矩形" stroke="#1F202A" stroke-width="2"></path>
                    <line x1="2" y1="2" x2="9" y2="2" id="直线" stroke="#1F202A" stroke-linecap="round"></line>
                    <path d="M18.7180574,4.5 C19.447014,4.5 19.6972968,4.61124634 19.9600217,4.75175315 C20.2998308,4.93348504 20.566515,5.2001692 20.7482468,5.53997829 C20.8887537,5.80270319 21,6.05298601 21,6.7819426 L21,6.7819426 L21,8.2180574 C21,8.94701399 20.8887537,9.19729681 20.7482468,9.46002171 C20.566515,9.7998308 20.2998308,10.066515 19.9600217,10.2482468 C19.6972968,10.3887537 19.447014,10.5 18.7180574,10.5 L18.7180574,10.5 L14.2819426,10.5 C13.552986,10.5 13.3027032,10.3887537 13.0399783,10.2482468 C12.7001692,10.066515 12.433485,9.7998308 12.2517532,9.46002171 C12.1112463,9.19729681 12,8.94701399 12,8.2180574 L12,8.2180574 L12,6.7819426 C12,6.05298601 12.1112463,5.80270319 12.2517532,5.53997829 C12.433485,5.2001692 12.7001692,4.93348504 13.0399783,4.75175315 C13.3027032,4.61124634 13.552986,4.5 14.2819426,4.5 L14.2819426,4.5 Z" id="矩形" stroke="#1F202A" stroke-width="2" fill="#FFFFFF"></path>
                    <circle id="椭圆形" fill="#1F202A" cx="15.5" cy="7.5" r="1"></circle>
                </g>
            </g>
        </g>
    </g>
</svg>