<?xml version="1.0" encoding="UTF-8"?>
<svg width="137px" height="28px" viewBox="0 0 137 28" version="1.1" xmlns="http://www.w3.org/2000/svg" xmlns:xlink="http://www.w3.org/1999/xlink">
    <title>编组 16</title>
    <g id="0708signup蓝湖" stroke="none" stroke-width="1" fill="none" fill-rule="evenodd">
        <g id="切图备份" transform="translate(-119.000000, -341.000000)">
            <g id="编组-16" transform="translate(119.500000, 341.000000)">
                <rect id="矩形" x="0" y="0" width="136" height="28"></rect>
                <g id="Gmail-Logo.wine备份" transform="translate(49.000000, 2.000000)" fill-rule="nonzero">
                    <path d="M2.59090909,24 L8.63636364,24 L8.63636364,11.6393916 L0,6.18618196 L0,21.8187162 C0,23.0238755 1.15943182,24 2.59090909,24 Z" id="路径" fill="#4285F4"></path>
                    <path d="M29.3636364,24 L35.4090909,24 C36.8405682,24 38,23.0238755 38,21.8187162 L38,6.18618196 L29.3636364,11.6393916 L29.3636364,24 Z" id="路径" fill="#34A853"></path>
                    <path d="M29.3636364,2.18716159 L29.3636364,11.6393916 L38,6.18618196 L38,3.27780351 C38,0.582100226 34.3446591,-0.957522619 31.7818182,0.660262897 L29.3636364,2.18716159 Z" id="路径" fill="#FBBC04"></path>
                    <polygon id="路径" fill="#EA4335" points="8.63636364 11.6393916 8.63636364 2.18716159 19 8.73101311 29.3636364 2.18716159 29.3636364 11.6393916 19 18.1832431"></polygon>
                    <path d="M0,3.27780351 L0,6.18618196 L8.63636364,11.6393916 L8.63636364,2.18716159 L6.21818182,0.660262897 C3.65534091,-0.957522619 0,0.582100226 0,3.27780351 Z" id="路径" fill="#C5221F"></path>
                </g>
            </g>
        </g>
    </g>
</svg>