<?xml version="1.0" encoding="UTF-8"?>
<svg width="137px" height="28px" viewBox="0 0 137 28" version="1.1" xmlns="http://www.w3.org/2000/svg" xmlns:xlink="http://www.w3.org/1999/xlink">
    <title>编组 15</title>
    <g id="0708signup蓝湖" stroke="none" stroke-width="1" fill="none" fill-rule="evenodd">
        <g id="切图备份" transform="translate(-119.000000, -741.000000)">
            <g id="编组-15" transform="translate(119.500000, 741.000000)">
                <rect id="矩形备份-8" x="0" y="0" width="136" height="28"></rect>
                <g id="mail-com-quadrat备份" transform="translate(17.625000, 1.000000)" fill="#22366B" fill-rule="nonzero">
                    <path d="M100.75,8.64650284 L100.75,17.1077505 L98.5275173,17.1077505 L98.5275173,8.60113422 C98.5275173,6.9073724 97.3799358,5.62570888 95.6126604,5.62570888 C93.845385,5.62570888 92.6978036,6.9073724 92.6978036,8.60113422 L92.6978036,17.1077505 L90.4753208,17.1077505 L90.4753208,8.60113422 C90.4753208,6.9073724 89.3277394,5.62570888 87.560464,5.62570888 C85.7931885,5.62570888 84.6417818,6.9073724 84.6417818,8.60113422 L84.6417818,17.1077505 L82.4231244,17.1077505 L82.4231244,3.61436673 L87.5145607,3.61436673 C89.1524069,3.55168519 90.6881568,4.39964515 91.492843,5.81096408 C92.3311406,4.41274281 93.8693346,3.57232237 95.5132034,3.61436673 C98.6575765,3.56899811 100.742349,5.76559546 100.742349,8.64650284" id="路径"></path>
                    <path d="M75.0173988,3.56899811 C71.2227295,3.56899811 68.3078727,6.6805293 68.3078727,10.5217391 C68.3078727,14.362949 71.2227295,17.3837429 75.0173988,17.3837429 C78.8120681,17.3837429 81.7422261,14.2722117 81.7422261,10.5217391 C81.7422261,6.6805293 78.8579714,3.56899811 75.0173988,3.56899811 Z M75.0173988,15.3232514 C72.5653998,15.3232514 70.5303554,13.1758034 70.5303554,10.5217391 C70.5303554,7.86767486 72.5653998,5.62570888 75.0173988,5.62570888 C77.4693978,5.62570888 79.5082675,7.82230624 79.5082675,10.5217391 C79.5082675,13.221172 77.5344274,15.3232514 75.0173988,15.3232514 Z" id="形状"></path>
                    <path d="M57.3408193,10.4763705 C57.3408193,13.1228733 59.3758638,15.2778828 61.8278628,15.2778828 C63.4565449,15.3129228 64.9542717,14.3995883 65.6531343,12.9451796 L68.0133268,12.9451796 C67.1657836,15.6096518 64.6377659,17.3991917 61.8125617,17.3345936 C58.1556022,17.3345936 55.1489388,14.2722117 55.1489388,10.4763705 C55.1489388,6.6805293 58.1556022,3.52362949 61.8125617,3.52362949 C64.6369708,3.46157706 67.163601,5.25013471 68.0133268,7.91304348 L65.6760859,7.91304348 C64.958207,6.47560588 63.4726795,5.5697107 61.8508144,5.58034026 C59.3529121,5.62570888 57.363771,7.82230624 57.363771,10.4763705" id="路径"></path>
                    <polygon id="路径" points="53.221002 14.9111531 55.4434847 14.9111531 55.4434847 17.1077505 53.221002 17.1077505 53.221002 14.9111531"></polygon>
                    <path d="M52.1116732,15.0018904 L52.1116732,17.0623819 C48.9634748,17.4404537 46.8366239,15.5992439 46.8366239,12.2608696 L46.8366239,0.0189035917 L49.0093781,0.0189035917 L49.0093781,12.1852552 C49.0093781,14.5179584 50.4438549,15.1153119 52.1116732,15.020794" id="路径"></path>
                    <polygon id="路径" points="42.625 3.89035917 44.8436575 3.89035917 44.8436575 17.0623819 42.625 17.0623819 42.625 3.89035917"></polygon>
                    <polygon id="路径" points="42.625 0 44.8436575 0 44.8436575 2.19659735 42.625 2.19659735 42.625 0"></polygon>
                    <path d="M34.0143139,3.56899811 C30.3152764,3.56899811 27.3047878,6.54064272 27.3047878,10.5217391 C27.3047878,14.5028355 30.2655479,17.4291115 33.9684107,17.4291115 C35.8058925,17.4081511 37.5239604,16.5254419 38.5969891,15.0510397 L38.5969891,17.1077505 L40.7276654,17.1077505 L40.7276654,10.5217391 C40.7276654,6.58601134 37.8089832,3.56899811 34.0143139,3.56899811 Z M34.0143139,15.36862 C31.5164116,15.36862 29.5272705,13.2665406 29.5272705,10.4763705 C29.5272705,7.68620038 31.5623149,5.53497164 34.0143139,5.53497164 C36.4663129,5.53497164 38.5166584,7.731569 38.5166584,10.4763705 C38.5166584,13.221172 36.4701382,15.36862 34.0143139,15.36862 Z" id="形状"></path>
                    <path d="M23.0013574,16.9716446 L19.7154492,16.9716446 L19.7154492,9.56143667 C19.7154492,8.82797732 19.4859329,7.13799622 17.3093534,7.13799622 C16.6464746,7.10950848 16.0013504,7.35412948 15.5278509,7.81351409 C15.0543514,8.27289869 14.7949261,8.90586282 14.8114511,9.56143667 L14.8114511,16.9716446 L11.5255429,16.9716446 L11.5255429,9.56143667 C11.5255429,8.82797732 11.2922014,7.13799622 9.11944719,7.13799622 C8.45402394,7.10146158 7.80375392,7.34332497 7.32779645,7.8043882 C6.85183899,8.26545143 6.59412042,8.90316274 6.61771964,9.56143667 L6.61771964,16.9716446 L3.32416091,16.9716446 L3.32416091,3.93572779 L9.11944719,3.93572779 C10.6823549,3.87647656 12.1850511,4.53532215 13.189536,5.72022684 C14.2189008,4.56623412 15.7070454,3.91438123 17.2634501,3.93572779 C20.8745064,3.93572779 23.0013574,6.268431 23.0013574,9.60680529 L23.0013574,16.9716446 L23.0013574,16.9716446 Z M19.7154492,0.0189035917 L0,0.0189035917 L0,16.9451796 C0.00961365627,18.4219238 1.01386107,19.7113124 2.45582428,20.0982987 L2.45582428,20.0982987 L26.2414027,26 L26.2414027,6.4952741 C26.2474614,4.7803781 25.5627275,3.13359833 24.3383301,1.91849609 C23.1139326,0.703393854 21.4505645,0.0198976288 19.7154492,0.0189035917" id="形状"></path>
                </g>
            </g>
        </g>
    </g>
</svg>