<?xml version="1.0" encoding="UTF-8"?>
<svg width="137px" height="28px" viewBox="0 0 137 28" version="1.1" xmlns="http://www.w3.org/2000/svg" xmlns:xlink="http://www.w3.org/1999/xlink">
    <title>编组 18</title>
    <g id="0708signup蓝湖" stroke="none" stroke-width="1" fill="none" fill-rule="evenodd">
        <g id="切图备份" transform="translate(-119.000000, -501.000000)">
            <g id="编组-18" transform="translate(119.500000, 501.000000)">
                <rect id="矩形备份-6" x="0" y="0" width="136" height="28"></rect>
                <g id="QQ邮箱备份" transform="translate(27.869565, 1.000000)" fill-rule="nonzero">
                    <path d="M16.93948,13.0992366 L6.25147477,2.38167939 L0,2.38167939 L0,25.2061069 L6.25147477,25.2061069 L6.25147477,8.93129771 L16.7378195,19.648855 L27.8291457,8.53435115 L27.8291457,24.8091603 L34.0806205,24.8091603 L34.0806205,20.0458015 C32.0640157,18.0610687 31.0557133,15.480916 31.0557133,12.7022901 C31.0557133,9.72519084 32.2656762,7.14503817 34.0806205,5.35877863 L34.0806205,2.18320611 L27.8291457,2.18320611 L16.93948,13.0992366 Z" id="路径" fill="#2C91DE"></path>
                    <path d="M55.2549705,17.4656489 C53.8433472,17.4656489 52.8350448,18.6564885 52.8350448,18.6564885 C48.3985143,22.6259542 41.9453791,23.221374 36.9038672,20.0458015 C39.3237929,23.6183206 43.3570024,26 47.9951934,26 C51.8267424,26 55.456631,24.4122137 57.8765567,21.6335878 C57.8765567,21.6335878 58.0782172,20.6412214 58.0782172,20.0458015 C57.6748962,18.4580153 56.6665938,17.4656489 55.2549705,17.4656489 L55.2549705,17.4656489 Z" id="路径" fill="#ED4636"></path>
                    <path d="M64.1280315,8.33587786 L69.5728643,8.33587786 L69.5728643,25.0076336 L64.1280315,25.0076336 L64.1280315,8.33587786 L64.1280315,8.33587786 Z M74.8160367,0 L80.2608696,0 L80.2608696,25.0076336 L74.8160367,25.0076336 L74.8160367,0 Z M63.3213896,3.3740458 C63.3213896,5.35877863 64.9346734,6.7480916 66.7496177,6.7480916 C68.7662224,6.7480916 70.1778458,5.16030534 70.1778458,3.3740458 C70.1778458,1.58778626 68.5645619,0 66.7496177,0 C64.9346734,0 63.3213896,1.38931298 63.3213896,3.3740458 Z" id="形状" fill="#2C91DE"></path>
                    <path d="M50.4151191,0.198473282 C50.4151191,0.198473282 49.4068167,0.396946565 48.8018353,0.79389313 C47.7935329,1.58778626 47.3902119,2.97709924 48.1968538,4.16793893 C49.0034957,5.35877863 50.4151191,5.55725191 50.4151191,5.55725191 C53.4400262,6.54961832 56.0616124,8.53435115 57.8765567,11.3129771 C59.0865196,13.4961832 59.691501,15.8778626 59.4898405,18.4580153 C61.5064453,14.6870229 61.5064453,10.1221374 59.28818,6.15267176 C57.2715753,3.17557252 54.0450076,0.79389313 50.4151191,0.198473282 L50.4151191,0.198473282 Z" id="路径" fill="#82D531"></path>
                    <path d="M40.1304348,16.6717557 C40.9370767,15.480916 40.3320953,14.0916031 40.3320953,14.0916031 C39.5254534,10.9160305 40.1304348,7.74045802 41.7437186,4.96183206 C42.9536815,2.77862595 44.9702862,1.19083969 47.1885515,0 C42.9536815,0.198473282 38.9204719,2.38167939 36.5005462,6.35114504 C34.6856019,9.52671756 34.282281,13.2977099 35.4922438,16.870229 C35.4922438,16.870229 36.0972253,17.4656489 36.9038672,17.8625954 C37.9121695,18.4580153 39.3237929,18.0610687 40.1304348,16.6717557 L40.1304348,16.6717557 Z" id="路径" fill="#F8BE32"></path>
                    <path d="M52.4317238,14.4885496 C52.2300634,13.4961832 51.4234215,12.7022901 51.4234215,12.7022901 C51.6250819,11.7099237 51.221761,11.7099237 51.221761,11.7099237 C51.221761,8.73282443 48.6001748,8.93129771 48.6001748,8.93129771 C48.6001748,8.93129771 45.9785886,8.93129771 45.9785886,11.7099237 C45.9785886,11.7099237 45.5752676,11.9083969 45.7769281,12.7022901 C45.7769281,12.7022901 44.9702862,13.2977099 44.7686257,14.4885496 C44.7686257,14.4885496 44.5669653,16.2748092 45.5752676,14.6870229 C45.5752676,14.6870229 45.7769281,15.2824427 46.1802491,15.6793893 C46.1802491,15.6793893 45.5752676,15.8778626 45.5752676,16.4732824 C45.5752676,16.4732824 45.5752676,17.0687023 46.986891,17.0687023 C46.986891,17.0687023 47.9951934,17.0687023 48.3985143,16.4732824 L48.8018353,16.4732824 C49.2051562,16.870229 50.2134586,17.0687023 50.2134586,17.0687023 C51.8267424,17.0687023 51.6250819,16.4732824 51.6250819,16.4732824 C51.6250819,15.8778626 51.0201005,15.6793893 51.0201005,15.6793893 C51.4234215,15.0839695 51.6250819,14.6870229 51.6250819,14.6870229 C52.6333843,16.2748092 52.4317238,14.4885496 52.4317238,14.4885496 L52.4317238,14.4885496 Z" id="路径" fill="#1599FF"></path>
                </g>
            </g>
        </g>
    </g>
</svg>