<?xml version="1.0" encoding="UTF-8"?>
<svg width="136px" height="28px" viewBox="0 0 136 28" version="1.1" xmlns="http://www.w3.org/2000/svg" xmlns:xlink="http://www.w3.org/1999/xlink">
    <title>编组 14</title>
    <g id="0708signup蓝湖" stroke="none" stroke-width="1" fill="none" fill-rule="evenodd">
        <g id="切图备份" transform="translate(-120.000000, -661.000000)">
            <g id="编组-14" transform="translate(120.000000, 661.000000)">
                <rect id="矩形备份-7" x="0" y="0" width="136" height="28"></rect>
                <g id="Yahoo!_Mail-Logo.wine备份" transform="translate(0.695652, 2.000000)" fill-rule="nonzero">
                    <path d="M89.72468,19.3291635 L84.9702952,19.3291635 L84.9702952,6.37239443 L89.6547768,6.37239443 L89.6547768,7.95755694 C89.6547768,7.95755694 90.7023074,6.02370782 93.1585352,6.02370782 C95.7485152,6.02370782 96.725176,8.11662985 96.725176,8.11662985 C96.725176,8.11662985 97.8898733,6.02370782 100.786278,6.02370782 C103.641218,6.02370782 105.386204,7.85886354 105.386204,11.1844 L105.386204,19.3291635 L100.631819,19.3291635 L100.631819,12.0926501 C100.631819,11.2431747 100.126369,10.3586451 99.1048359,10.3586451 C98.0447389,10.3586451 97.5554165,11.3463815 97.5554165,12.3582397 L97.5554165,19.3291635 L92.8010826,19.3291635 L92.8010826,12.23051 C92.8010826,11.2193038 92.2765541,10.3586451 91.2454055,10.3586451 C90.2887389,10.3586451 89.72468,11.1811904 89.72468,12.3683698 L89.72468,19.3291635 Z M112.784039,6.02375797 C109.126229,6.02375797 106.674733,9.10973223 106.674733,12.872318 C106.674733,17.1119219 109.498588,19.6810596 112.726142,19.6810596 C115.360181,19.6810596 116.503052,18.0196705 116.503052,18.0196705 L116.503052,19.3291635 L121.187534,19.3291635 L121.187534,6.37239443 L116.503052,6.37239443 L116.503052,7.68188741 C116.503052,7.68188741 115.245253,6.02375797 112.784039,6.02375797 L112.784039,6.02375797 Z M113.975904,10.2878346 C115.567296,10.2878346 116.650795,11.5450722 116.650795,12.8636923 C116.650795,14.1860235 115.568161,15.4831798 113.984655,15.4831798 C112.689359,15.4831798 111.327264,14.4544214 111.327264,12.8984457 C111.327264,11.3978847 112.522792,10.2878346 113.975904,10.2878346 L113.975904,10.2878346 Z M123.159171,19.3291635 L123.159171,6.37239443 L127.913556,6.37239443 L127.913556,19.3291635 L123.159171,19.3291635 Z" id="形状" fill="#7F19FF"></path>
                    <ellipse id="椭圆形" fill="#7F19FF" cx="125.539899" cy="2.63724023" rx="2.67545117" ry="2.63724023"></ellipse>
                    <polygon id="路径" fill="#7F19FF" points="129.854362 19.3291635 129.854362 0.652138737 134.608696 0.652138737 134.608696 19.3291635"></polygon>
                    <g id="编组" transform="translate(0.000000, 0.791369)" fill="#35007D">
                        <path d="M0,5.64981968 L5.05102243,5.64981968 L7.99214156,13.0669674 L10.9714779,5.64981968 L15.8894621,5.64981968 L8.4840555,23.2086313 L3.53491349,23.2086313 L5.56199683,18.5558535 L0,5.64981968 Z M21.0127154,5.35455333 C17.2176298,5.35455333 14.8185145,8.70951926 14.8185145,12.0505363 C14.8185145,15.8101769 17.4488582,18.7908963 20.9407092,18.7908963 C23.5455106,18.7908963 24.5276378,17.2265381 24.5276378,17.2265381 L24.5276378,18.4451168 L28.9330754,18.4451168 L28.9330754,5.64991457 L24.5276378,5.64991457 L24.5276378,6.81310902 C24.5276378,6.81310902 23.4318859,5.35455333 21.0126833,5.35455333 L21.0127154,5.35455333 Z M21.9497585,9.46642594 C23.7008181,9.46642594 24.6044573,10.8322107 24.6044573,12.0646117 C24.6044573,13.3916497 23.6363527,14.6939214 21.9497906,14.6939214 C20.5519271,14.6939214 19.2887062,13.5678923 19.2887062,12.1210713 C19.2887062,10.6537541 20.3047829,9.46642594 21.9497906,9.46642594 L21.9497585,9.46642594 Z M30.4503074,18.4450535 L30.4503074,0 L35.0581259,0 L35.0581259,6.85739107 C35.0581259,6.85739107 36.1526264,5.35613483 38.4448235,5.35613483 C41.2487009,5.35613483 42.8914624,7.4154081 42.8914624,10.3580133 L42.8914624,18.4450535 L38.3173366,18.4450535 L38.3173366,11.4658236 C38.3173366,10.4699836 37.8361081,9.50795617 36.7460357,9.50795617 C35.6364216,9.50795617 35.0581259,10.4845651 35.0581259,11.4658552 L35.0581259,18.4450535 L30.4503074,18.4450535 Z M50.7476458,5.35607157 C46.4016037,5.35607157 43.8137449,8.61364863 43.8137449,12.1037697 C43.8137449,16.0756161 46.947041,18.7908647 50.7641071,18.7908647 C54.4637941,18.7908647 57.7011205,16.1988467 57.7011205,12.1703825 C57.7011205,7.76257934 54.311535,5.35607157 50.7476458,5.35607157 Z M50.7891681,9.50409731 C52.3243374,9.50409731 53.3865571,10.7644592 53.3865571,12.1085142 C53.3865571,13.2549131 52.3967608,14.6688388 50.7891681,14.6688388 C49.3161216,14.6688388 48.2106469,13.5040973 48.2106469,12.0959887 C48.2106469,10.7395031 49.1297206,9.50409731 50.7891681,9.50409731 Z M65.3775451,5.35607157 C61.031503,5.35607157 58.4436121,8.61364863 58.4436121,12.1037697 C58.4436121,16.0756161 61.5769403,18.7908647 65.3940064,18.7908647 C69.0936934,18.7908647 72.3310198,16.1988467 72.3310198,12.1703825 C72.3310198,7.76257934 68.9414343,5.35607157 65.3775451,5.35607157 Z M65.4190353,9.50409731 C66.9542368,9.50409731 68.0164564,10.7644592 68.0164564,12.1085142 C68.0164564,13.2549131 67.0266601,14.6688388 65.4190353,14.6688388 C63.9459889,14.6688388 62.8405463,13.5040973 62.8405463,12.0959887 C62.8405463,10.7395031 63.7596199,9.50409731 65.4190353,9.50409731 Z" id="形状"></path>
                        <ellipse id="椭圆形" cx="75.9669153" cy="15.7006105" rx="3.05978174" ry="3.01608176"></ellipse>
                        <polygon id="路径" points="80.0321203 11.5766236 74.523711 11.5766236 79.412527 0 84.9003356 0"></polygon>
                    </g>
                </g>
            </g>
        </g>
    </g>
</svg>