<svg width="27" height="26" viewBox="0 0 27 26" fill="none" xmlns="http://www.w3.org/2000/svg">
<path d="M19.477 13.6017C19.4668 11.8701 20.2514 10.565 21.8357 9.60272C20.9496 8.33319 19.609 7.63495 17.8418 7.50038C16.1686 7.36835 14.3379 8.47538 13.6676 8.47538C12.9592 8.47538 11.3393 7.54608 10.0646 7.54608C7.43418 7.58671 4.63867 9.64335 4.63867 13.8277C4.63867 15.0642 4.86465 16.3414 5.3166 17.6566C5.9209 19.3883 8.09941 23.631 10.3719 23.5625C11.5602 23.5346 12.4006 22.7195 13.9469 22.7195C15.4475 22.7195 16.2244 23.5625 17.5498 23.5625C19.8426 23.5295 21.8129 19.6726 22.3867 17.9359C19.3119 16.4861 19.477 13.6906 19.477 13.6017Z" fill="white"/>
<path d="M16.8084 5.85762C18.0957 4.3291 17.9789 2.9377 17.9408 2.4375C16.8033 2.50352 15.4881 3.21191 14.7391 4.08281C13.9139 5.01719 13.4289 6.17246 13.533 7.475C14.7619 7.56894 15.8842 6.93672 16.8084 5.85762Z" fill="white"/>
</svg>
