<svg width="27" height="26" viewBox="0 0 27 26" fill="none" xmlns="http://www.w3.org/2000/svg">
<rect opacity="0.01" x="0.5" width="26" height="26" fill="black"/>
<path d="M7.15677 12.9977C7.15677 12.2761 7.2777 11.5839 7.49165 10.9353L3.73538 8.07544C2.98068 9.60239 2.58877 11.2884 2.5912 12.9977C2.5912 14.7666 3.00236 16.4352 3.73352 17.9162L7.48793 15.0517C7.26902 14.3898 7.15718 13.6961 7.15677 12.9977Z" fill="#FBBC05"/>
<path d="M13.7539 6.43249C15.326 6.43249 16.7465 6.9874 17.8628 7.89648L21.1102 4.66451C19.1316 2.94768 16.5949 1.88708 13.7539 1.88708C9.34278 1.88708 5.55116 4.40126 3.73535 8.07546L7.49348 10.9353C8.3586 8.31599 10.8256 6.43249 13.7539 6.43249Z" fill="#EA4335"/>
<path d="M13.7539 19.563C10.8246 19.563 8.35767 17.6795 7.49162 15.0602L3.73535 17.9201C5.55023 21.5943 9.34185 24.1084 13.7539 24.1084C16.4758 24.1084 19.0749 23.1454 21.0265 21.3395L17.46 18.5915C16.4544 19.2231 15.1874 19.563 13.753 19.563" fill="#34A853"/>
<path d="M24.4088 12.9978C24.4088 12.3415 24.3065 11.6341 24.1549 10.9779H13.7531V15.2705H19.74C19.4414 16.7345 18.6265 17.8595 17.461 18.5915L21.0265 21.3395C23.0758 19.4437 24.4088 16.6199 24.4088 12.9978Z" fill="#4285F4"/>
</svg>
