<svg width="80" height="80" viewBox="0 0 80 80" fill="none" xmlns="http://www.w3.org/2000/svg">
<path fill-rule="evenodd" clip-rule="evenodd" d="M55.8678 0C56.4464 0 56.9997 0.00415531 57.5292 0.0124309L59.0487 0.0495835L60.4366 0.111248C61.3204 0.160481 62.1237 0.225915 62.8604 0.30727L63.9174 0.441208L64.8852 0.598817L65.7744 0.779887L66.5956 0.984208C67.3863 1.20008 68.0908 1.45052 68.7568 1.73457L69.4116 2.0298L70.0513 2.34722C70.1572 2.40196 70.263 2.45762 70.3688 2.51419C73.4363 4.15473 75.8437 6.56215 77.4843 9.62969L77.8127 10.2658L78.119 10.9117L78.4031 11.5781C79.1306 13.3917 79.618 15.5362 79.8472 18.9138L79.9211 20.24L79.9705 21.6924L79.9953 23.2815C79.9974 23.5584 79.9984 23.8413 79.9984 24.1307V55.8693L79.986 57.5308C79.9819 57.7956 79.9767 58.0544 79.9705 58.3076L79.9211 59.76L79.8472 61.0862C79.5893 64.886 79.0047 67.1251 78.119 69.0883L77.8127 69.7342L77.4843 70.3703C75.8437 73.4378 73.4363 75.8453 70.3688 77.4858L69.7327 77.8143L69.0867 78.1206C67.0145 79.0555 64.6348 79.6549 60.4366 79.8887L59.0487 79.9504L57.5292 79.9876C57.2644 79.9917 56.9937 79.9948 56.7169 79.9969L24.1291 80C23.5505 80 22.9972 79.9958 22.4677 79.9876L20.9482 79.9504L19.5603 79.8887C15.583 79.6672 13.2379 79.1176 11.2401 78.2654L10.5853 77.9702C10.4777 77.9191 10.3707 77.8672 10.2642 77.8143L9.62813 77.4858C6.56059 75.8453 4.15317 73.4378 2.51263 70.3703L2.18419 69.7342L1.87784 69.0883C0.992147 67.1251 0.407573 64.886 0.14965 61.0862L0.075809 59.76L0.0263744 58.3076L0.0015564 56.7185L0.0015564 23.2815L0.0263744 21.6924L0.075809 20.24L0.14965 18.9138C0.378915 15.5362 0.866275 13.3917 1.5938 11.5781L1.87784 10.9117L2.18419 10.2658L2.51263 9.62969C4.15317 6.56215 6.56059 4.15473 9.62813 2.51419L10.2642 2.18575L10.9101 1.8794C11.6736 1.53496 12.4788 1.23606 13.4013 0.984208L14.2225 0.779887L15.1117 0.598817L16.0795 0.441208L17.1365 0.30727C17.8732 0.225915 18.6764 0.160481 19.5603 0.111248L20.9482 0.0495835L22.4677 0.0124309C22.7324 0.0082931 23.0031 0.00518538 23.28 0.0031121L55.8678 0Z" fill="url(#paint0_linear_147_4256)"/>
<path fill-rule="evenodd" clip-rule="evenodd" d="M48.8086 22.0744C48.8379 21.748 48.7241 21.425 48.4966 21.1891C48.2691 20.9532 47.9503 20.8278 47.6231 20.8454C47.1097 20.8703 46.5932 20.9076 46.0673 20.9512H45.9895L45.9491 21.0134C45.5424 21.6709 45.2164 22.375 44.9783 23.1106L44.9036 23.3346L45.1401 23.3097C46.0113 23.2132 46.8856 23.1417 47.7569 23.0919C48.3154 23.0649 48.769 22.6312 48.821 22.0744H48.8086ZM26.0664 29.8781L26.1567 29.8221L26.1349 29.7288C25.996 29.0527 25.7103 28.4153 25.2979 27.8619L25.2139 27.7499L25.0956 27.8214C22.0651 29.6793 19.2523 31.8711 16.7101 34.3556L16.6634 34.3961V37.6165L16.9279 37.3396C19.6357 34.4646 22.7079 31.9562 26.0664 29.8781ZM44.6142 29.6914C45.0498 29.623 45.4357 29.5701 45.7935 29.5234C51.6533 28.7746 57.606 29.3228 63.2305 31.129L63.3363 31.1632V33.5311L63.134 33.4626C59.1966 32.127 55.0666 31.4469 50.9088 31.4495C49.2911 31.4523 47.6752 31.5563 46.0704 31.7606C45.6441 31.8135 45.1961 31.8788 44.6609 31.966L44.4835 31.994V29.7101L44.6142 29.6914ZM29.9185 42.9185L30.0772 42.7972L29.9154 42.679C29.395 42.2897 28.9164 41.8476 28.4872 41.3597L28.3938 41.2414L28.2818 41.3286C25.9291 43.1926 23.8094 45.3332 21.9685 47.7041C21.112 48.8091 20.3164 49.96 19.5851 51.1516L19.5384 51.2294L19.582 51.3072C19.9367 51.9451 20.3288 52.5798 20.7457 53.1741L20.8826 53.3733L21.004 53.1648C23.2799 49.1953 26.3079 45.7076 29.9185 42.8968V42.9185ZM53.174 58.7375C49.3075 58.7205 45.5864 60.2105 42.8002 62.8914L42.4673 63.2026L42.9247 63.1466C46.7381 62.6596 50.3722 61.238 53.5039 59.0082L53.8804 58.7407H53.4167L53.174 58.7375ZM61.989 35.0308C62.409 35.1584 62.8229 35.2922 63.2336 35.4353L63.3301 35.4727V37.8654L63.1247 37.7907C62.5314 37.5729 61.933 37.3717 61.3293 37.1871C60.8184 37.0303 60.4874 36.5369 60.5359 36.0047C60.5668 35.6667 60.7485 35.3607 61.0305 35.1717C61.3124 34.9827 61.6646 34.931 61.989 35.0308ZM29.4393 52.0727C37.7264 42.5356 51.1422 39.2893 62.8727 43.9827L62.9878 44.0387L62.966 44.16C62.9349 44.3343 62.9038 44.5054 62.8695 44.6766C62.7731 45.1464 62.6611 45.6287 62.5335 46.1016L62.4868 46.2697L62.3281 46.2012C59.0198 44.8221 55.4702 44.1145 51.8859 44.1196C50.7333 44.1199 49.5819 44.1916 48.4383 44.3343C41.7262 45.1545 35.56 48.4444 31.1413 53.5631C30.9375 53.8007 30.6439 53.9428 30.331 53.9552C30.0181 53.9676 29.7142 53.8492 29.4922 53.6284C29.0645 53.206 29.0413 52.5231 29.4393 52.0727ZM49.0917 51.7895C49.0565 51.4751 48.89 51.1903 48.6334 51.0053C48.3767 50.8204 48.0538 50.7526 47.7444 50.8187C47.3067 50.9162 46.868 51.0199 46.4282 51.1299C41.8491 52.4092 37.8043 55.1304 34.8938 58.89C34.13 59.8693 33.4483 60.91 32.8558 62.0015L32.7687 62.1633L32.9522 62.2225C33.5745 62.4247 34.2404 62.5989 34.8938 62.7452L35.0027 62.7701L35.0587 62.6705C35.5386 61.8288 36.0772 61.022 36.6705 60.256C39.5422 56.5485 43.6302 53.9734 48.2143 52.9843C48.78 52.8644 49.1607 52.3326 49.0917 51.7584V51.7895ZM26.5051 37.5387C26.6639 38.1912 26.8956 38.8237 27.1959 39.4243L27.2426 39.5363L27.1461 39.611C26.3641 40.225 25.607 40.8701 24.8747 41.5464C24.4308 41.9511 23.748 41.9388 23.3189 41.5184C23.1018 41.3008 22.9829 41.004 22.99 40.6967C22.997 40.3894 23.1294 40.0984 23.3563 39.891C24.2877 39.0322 25.2564 38.2201 26.2624 37.4547L26.4491 37.3147L26.5051 37.5387Z" fill="white" fill-opacity="0.7"/>
<path fill-rule="evenodd" clip-rule="evenodd" d="M49.8913 18.8074C53.5555 18.8079 57.2082 19.217 60.7817 20.0271L61.2484 20.1329L60.9373 19.7782C59.1502 17.7955 56.6055 16.6646 53.9363 16.6666C53.7683 16.6666 53.6003 16.6666 53.4198 16.6822C51.5437 16.7732 49.7385 17.427 48.2391 18.5584L47.8564 18.8385H48.3356C48.8552 18.8167 49.3779 18.8074 49.8913 18.8074ZM63.2274 26.8538C62.7544 26.7106 62.3406 26.5924 61.9578 26.4897C56.434 25.0125 50.6762 24.6204 45.0031 25.3353L44.7822 25.3665L44.5084 25.4038V25.5283C44.5084 25.6351 44.5034 25.7353 44.4985 25.8313V25.8313V25.8313V25.8313C44.494 25.9198 44.4897 26.0048 44.4897 26.0883V27.6814L44.8196 27.6348L45.2894 27.5725C47.044 27.352 48.8106 27.2408 50.579 27.2396C54.8379 27.2381 59.072 27.8887 63.134 29.1687L63.3331 29.231V26.8849L63.2274 26.8538ZM26.2406 34.9188L26.1784 34.9624C22.8139 37.355 19.8179 40.2273 17.2857 43.488L16.9745 43.88L16.9185 43.5284C16.7767 42.601 16.6915 41.6658 16.6634 40.7281V40.6689L16.7131 40.6192C19.4054 37.4459 22.5335 34.6698 26.0042 32.3736L26.2406 32.218V34.9188ZM47.371 37.9028C46.2395 38.0439 45.1158 38.2422 44.0043 38.4971L43.9266 38.5158L43.8954 38.5904C43.5811 39.4207 43.1471 40.2006 42.6073 40.9054L42.3241 41.2726L42.7691 41.145C45.6254 40.3163 48.585 39.8972 51.5591 39.9004C55.4941 39.8948 59.3933 40.6469 63.0438 42.1158L63.2336 42.1936L63.2522 41.9882C63.3082 41.3192 63.3363 40.6503 63.3363 40.0031V39.8102L63.2367 39.7728C58.1779 37.8728 52.733 37.231 47.371 37.9028ZM35.1987 44.493L34.8098 44.7419C31.8143 46.6591 29.1705 49.0767 26.9936 51.8891C25.8348 53.3792 24.8122 54.9704 23.9381 56.6435L23.8448 56.824L23.6985 56.6809C23.2162 56.2048 22.734 55.6945 22.2828 55.1686L22.2143 55.0877L22.2641 54.9975C24.6552 50.6302 27.9845 46.8472 32.0125 43.9205L32.0779 43.8738L32.1557 43.9018C32.9846 44.2133 33.8547 44.402 34.7382 44.4619L35.1987 44.493ZM45.5259 46.9511C40.0201 48.3857 35.1453 51.605 31.664 56.1052C30.6224 57.4424 29.7127 58.8773 28.9477 60.3898L28.8823 60.5205L29.013 60.592C29.5886 60.9032 30.1829 61.1863 30.7804 61.4415L30.911 61.5006L30.9764 61.373C31.6716 60.0027 32.4968 58.7024 33.4407 57.4898C39.9319 49.1785 51.1234 46.138 60.9279 50.0222L61.0617 50.0751L61.1208 49.9444C61.3978 49.3563 61.656 48.7465 61.8832 48.1366L61.933 47.9966L61.796 47.9406C56.6155 45.8908 50.9167 45.5442 45.5259 46.9511ZM38.1329 61.706C37.8217 62.1011 37.5106 62.5212 37.2461 62.9506L37.1092 63.159L37.355 63.1871C38.1049 63.2711 38.8797 63.3208 39.6513 63.3333H39.726L39.8162 63.2151L39.9127 63.0875C43.6818 58.2561 49.8287 55.9272 55.853 57.048H55.9308L55.9868 56.9951C56.5452 56.4714 57.0769 55.9199 57.5799 55.3429L57.7448 55.1562L57.5053 55.094C50.3071 53.24 42.6954 55.8379 38.1329 61.706ZM23.5118 26.3901L23.2598 26.5488C21.0186 27.9805 18.8978 29.5924 16.9185 31.3686L16.6634 31.5957V30.7245C16.6596 29.6492 17.0217 28.6046 17.6902 27.7623C18.5953 26.6059 19.9835 25.9319 21.452 25.9359C22.0627 25.9351 22.6679 26.0513 23.2349 26.2781L23.5118 26.3901ZM58.1493 34.0725C58.7181 34.1836 59.109 34.7093 59.0517 35.286V35.2953C59.0221 35.6106 58.8612 35.8988 58.6084 36.0894C58.3556 36.28 58.0343 36.3555 57.7231 36.2972C55.584 35.8852 53.4108 35.6768 51.2324 35.6749C49.7761 35.6769 48.3213 35.7683 46.8763 35.9488C46.1575 36.039 45.4076 36.1572 44.6453 36.3004L44.4493 36.3408V36.1386C44.4835 35.871 44.4835 35.6096 44.4835 35.3607V34.0476L44.6111 34.0258C45.2801 33.8951 45.9428 33.7925 46.5807 33.7147C50.4317 33.2234 54.3361 33.3442 58.1493 34.0725ZM63.2336 24.6913C63.1172 23.9282 62.9082 23.1821 62.6113 22.4696L62.5801 22.4012L62.5086 22.3825C58.9236 21.428 55.2396 20.8944 51.5311 20.7925C50.9398 20.7785 50.4384 21.2242 50.383 21.8131C50.3499 22.1258 50.449 22.4382 50.6565 22.6746C50.8639 22.911 51.1607 23.0499 51.4751 23.0577C55.0262 23.1583 58.5536 23.672 61.9858 24.5886C62.3219 24.6788 62.6642 24.7753 63.0344 24.8842L63.2616 24.9495L63.2336 24.6913ZM27.861 54.7616C28.1972 54.7279 28.5308 54.8464 28.7703 55.0846V55.0909C29.1478 55.4719 29.2062 56.0655 28.9103 56.5128C28.3082 57.4298 27.7606 58.3815 27.2706 59.363L27.1959 59.5186L27.0496 59.4221C26.502 59.0549 25.9637 58.6598 25.4472 58.2491L25.3507 58.1713L25.4068 58.0593C25.8976 57.0968 26.4409 56.1619 27.0341 55.2589C27.2215 54.9778 27.5249 54.7954 27.861 54.7616ZM60.038 51.6091C57.3657 50.6483 54.5339 50.2089 51.696 50.3147C51.3857 50.3283 51.0949 50.4699 50.8927 50.7057C50.6904 50.9415 50.5949 51.2505 50.6288 51.5593C50.6967 52.1461 51.2053 52.5815 51.7956 52.5581H52.5206C54.6703 52.556 56.8063 52.9006 58.8463 53.5787L58.9521 53.616L59.0206 53.5195C59.4126 52.9719 59.7767 52.4087 60.1189 51.83L60.2123 51.6713L60.038 51.6091ZM21.4086 42.3012C21.7188 42.2918 22.0192 42.4104 22.2392 42.6292H22.233C22.6577 43.0551 22.6741 43.7392 22.2703 44.185C21.6584 44.8612 21.0714 45.5623 20.5092 46.2884C19.8745 47.1067 19.2522 47.9779 18.6641 48.874L18.5054 49.1167L18.3965 48.8491C18.0886 48.0959 17.8196 47.3274 17.5906 46.5466L17.5688 46.475L17.6124 46.4159C17.9858 45.8901 18.3623 45.3798 18.7325 44.9037C19.332 44.1404 19.9543 43.3988 20.5994 42.679C20.8058 42.4473 21.0985 42.3107 21.4086 42.3012Z" fill="white"/>
<defs>
<linearGradient id="paint0_linear_147_4256" x1="4.09347" y1="6.10464" x2="58.5368" y2="62.4667" gradientUnits="userSpaceOnUse">
<stop stop-color="#AB92FF"/>
<stop offset="1" stop-color="#8864FF"/>
</linearGradient>
</defs>
</svg>
